HIERARCHY
ROOT Hips
{
	OFFSET 0.00000 0.00000 0.00000
	CHANNELS 6 Xposition Yposition Zposition Zrotation Yrotation Xrotation 
	JOINT LHipJoint
	{
		OFFSET 0 0 0
		CHANNELS 3 Zrotation Yrotation Xrotation
		JOINT LeftHip
		{
			OFFSET 1.62964 -1.40469 0.78906
			CHANNELS 3 Zrotation Yrotation Xrotation
			JOINT LeftKnee
			{
				OFFSET 2.29640 -6.30932 0.00000
				CHANNELS 3 Zrotation Yrotation Xrotation
				JOINT LeftAnkle
				{
					OFFSET 2.29451 -6.30412 0.00000
					CHANNELS 3 Zrotation Yrotation Xrotation
					JOINT LeftToe
					{
						OFFSET 0.03611 -0.09921 1.56387
						CHANNELS 3 Zrotation Yrotation Xrotation
						End Site
						{
							OFFSET 0.00000 -0.00000 0.80291
						}
					}
				}
			}
		}
	}
	JOINT RHipJoint
	{
		OFFSET 0 0 0
		CHANNELS 3 Zrotation Yrotation Xrotation
		JOINT RightHip
		{
			OFFSET -1.73712 -1.40469 0.78906
			CHANNELS 3 Zrotation Yrotation Xrotation
			JOINT RightKnee
			{
				OFFSET -2.28137 -6.26801 0.00000
				CHANNELS 3 Zrotation Yrotation Xrotation
				JOINT RightAnkle
				{
					OFFSET -2.28681 -6.28298 0.00000
					CHANNELS 3 Zrotation Yrotation Xrotation
					JOINT RightToe
					{
						OFFSET -0.15927 -0.43759 1.61103
						CHANNELS 3 Zrotation Yrotation Xrotation
						End Site
						{
							OFFSET -0.00000 -0.00000 0.84630
						}
					}
				}
			}
		}
	}
	JOINT lowerback
	{
		OFFSET 0 0 0
		CHANNELS 3 Zrotation Yrotation Xrotation
		JOINT Chest
		{
			OFFSET -0.04227 2.04338 -0.00225
			CHANNELS 3 Zrotation Yrotation Xrotation
			JOINT Chest2
			{
				OFFSET -0.02148 2.04482 -0.04273
				CHANNELS 3 Zrotation Yrotation Xrotation
				JOINT lowerneck
				{
					OFFSET 0 0 0
					CHANNELS 3 Zrotation Yrotation Xrotation
					JOINT Neck
					{
						OFFSET 0.09180 1.44629 0.19359
						CHANNELS 3 Zrotation Yrotation Xrotation
						JOINT Head
						{
							OFFSET 0.00887 1.40645 0.14750
							CHANNELS 3 Zrotation Yrotation Xrotation
							End Site
							{
								OFFSET -0.00669 1.50671 0.03707
							}
						}
					}
				}
				JOINT LeftCollar
				{
					OFFSET 0 0 0
					CHANNELS 3 Zrotation Yrotation Xrotation
					JOINT LeftShoulder
					{
						OFFSET 2.17674 1.86763 -0.06520
CHANNELS 3 Zrotation Xrotation Yrotation
						JOINT LeftElbow
						{
OFFSET 0 -4.657760 0.000000
CHANNELS 3 Zrotation Xrotation Yrotation
							JOINT LeftWrist
							{
OFFSET 0 -3.555390 0.000000
CHANNELS 3 Zrotation Xrotation Yrotation
								JOINT lhand
								{
									OFFSET 0 0 0
CHANNELS 3 Zrotation Xrotation Yrotation
									JOINT LFingers
									{
OFFSET 0 -0.707260 0.000000
CHANNELS 3 Zrotation Xrotation Yrotation
										End Site
										{
OFFSET 0 -0.570220 0.000000
										}
									}
								}
								JOINT LThumb
								{
OFFSET 0 0.000000 0.000000
CHANNELS 3 Zrotation Xrotation Yrotation
									End Site
									{
OFFSET 0 -0.578920 0.578920
									}
								}
							}
						}
					}
				}
				JOINT RightCollar
				{
					OFFSET 0 0 0
					CHANNELS 3 Zrotation Yrotation Xrotation
					JOINT RightShoulder
					{
						OFFSET -2.80694 1.55459 -0.32496
CHANNELS 3 Zrotation Xrotation Yrotation
						JOINT RightElbow
						{
OFFSET 0 -4.719250 -0.000000
CHANNELS 3 Zrotation Xrotation Yrotation
							JOINT RightWrist
							{
OFFSET 0 -3.569900 0.000000
CHANNELS 3 Zrotation Xrotation Yrotation
								JOINT rhand
								{
									OFFSET 0 0 0
CHANNELS 3 Zrotation Xrotation Yrotation
									JOINT RFingers
									{
OFFSET 0 -0.507760 0.000000
CHANNELS 3 Zrotation Xrotation Yrotation
										End Site
										{
OFFSET 0 -0.409370 0.000000
										}
									}
								}
								JOINT RThumb
								{
OFFSET 0 0.000000 0.000000
CHANNELS 3 Zrotation Xrotation Yrotation
									End Site
									{
OFFSET 0 -0.415620 0.415620
									}
								}
							}
						}
					}
				}
			}
		}
	}
}
MOTION
Frames: 8
Frame Time: 0.008333333333333333
-1.202200 19.654900 20.654500 178.358000 -3.593000 -153.445000 0.000000 0.000000 0.000000 -20.967900 -15.187000 -20.082600 0.122100 2.252400 6.203800 0.051400 -5.460300 -5.232800 1.210800 -6.980600 -19.657900 0.000000 0.000000 0.000000 19.106100 13.675300 -20.974100 -0.140800 -2.418000 6.662500 -0.942200 5.150900 -17.341100 -0.394100 4.030700 -11.163100 -6.566400 -1.748400 -28.421300 -0.649600 -0.775400 -1.597400 2.516700 -0.999200 13.309100 -3.814200 -2.216000 -2.596700 6.426000 -3.916700 11.448300 2.407000 -1.970900 4.032500 -0.000000 -0.000000 0.000000 3.982300 -3.022600 -20.769700 9.819100 -16.456200 1.423300 22.654000 1.572700 12.546600 0.000000 0.000000 0.000000 -7.125000 0.000000 0.000000 -3.189000 16.435300 -2.159800 -0.000000 -0.000000 0.000000 2.955400 6.443200 4.918600 -17.867900 -27.987700 -4.487100 -7.816400 2.681700 58.789000 0.000000 0.000000 0.000000 7.125000 0.000000 -0.000000 89.757600 74.833900 -74.021700
-1.203047 19.657671 20.655731 178.371853 -3.569373 -153.505800 0.000000 0.000000 0.000000 -21.000532 -15.090490 -20.060589 0.123101 2.261712 6.229428 0.049245 -5.510864 -5.203401 1.313082 -7.256353 -20.478003 0.000000 0.000000 0.000000 19.136962 13.628661 -20.941699 -0.141570 -2.424542 6.680586 -0.941046 5.178683 -17.329094 -0.394870 4.034625 -11.174182 -6.551700 -1.744937 -28.346416 -0.638594 -0.776862 -1.583239 2.522087 -0.996891 13.291553 -3.768100 -2.301427 -2.658346 6.288470 -4.000280 11.357870 2.352819 -2.011074 4.016954 0.000000 0.000000 0.000000 3.953824 -3.009286 -20.782322 9.822486 -16.461433 1.424224 22.771751 1.458335 12.490572 0.000000 0.000000 0.000000 -7.125000 0.000000 0.000000 -3.104727 16.483555 -2.099385 0.000000 0.000000 0.000000 2.928617 6.413724 4.912828 -17.826187 -27.933981 -4.467552 -7.660399 2.582035 58.706266 0.000000 0.000000 0.000000 7.125000 0.000000 0.000000 89.442288 74.786876 -73.643203
-1.203138 19.659039 20.656370 178.379235 -3.544613 -153.550422 0.000000 0.000000 0.000000 -21.021516 -15.027682 -20.032862 0.122753 2.258515 6.220599 0.047414 -5.539319 -5.171898 1.291826 -7.200156 -20.310286 0.000000 0.000000 0.000000 19.158387 13.590003 -20.915499 -0.142016 -2.428549 6.691662 -0.948896 5.148768 -17.404767 -0.442175 4.261145 -11.813362 -6.546653 -1.730042 -28.265439 -0.673747 -0.763226 -1.773932 2.566731 -0.995553 13.455996 -3.719088 -2.399311 -2.724037 6.156224 -4.101763 11.267764 2.298908 -2.059660 4.002917 0.000000 0.000000 0.000000 3.927236 -3.007727 -20.807939 9.816005 -16.451245 1.422397 22.781764 1.414232 12.479138 0.000000 0.000000 0.000000 -7.125000 0.000000 0.000000 -3.097295 16.494765 -2.093541 0.000000 0.000000 0.000000 2.918173 6.392552 4.868285 -17.805827 -27.907762 -4.457979 -7.592077 2.562122 58.696814 0.000000 0.000000 0.000000 7.125000 0.000000 0.000000 89.403495 74.764550 -73.578053
-1.202290 19.658944 20.655766 178.374588 -3.548525 -153.567132 0.000000 0.000000 0.000000 -21.023626 -15.022636 -20.006492 0.121613 2.248088 6.191830 0.046647 -5.558359 -5.162846 1.194934 -6.932118 -19.515949 0.000000 0.000000 0.000000 19.159565 13.605221 -20.878731 -0.141582 -2.424988 6.681737 -0.962973 5.030518 -17.544215 -0.512296 4.583262 -12.724384 -6.566762 -1.728423 -28.244771 -0.681954 -0.754783 -1.821655 2.594482 -0.994321 13.509797 -3.660154 -2.503628 -2.786822 6.025309 -4.213180 11.175047 2.243413 -2.112921 3.987735 0.000000 0.000000 0.000000 3.907136 -3.009182 -20.828700 9.808581 -16.439594 1.420291 22.663654 1.425875 12.521874 0.000000 0.000000 0.000000 -7.125000 0.000000 0.000000 -3.181157 16.460806 -2.152829 0.000000 0.000000 0.000000 2.912857 6.378973 4.831824 -17.797710 -27.897340 -4.454151 -7.642041 2.626872 58.734392 0.000000 0.000000 0.000000 7.125000 0.000000 0.000000 89.545477 74.778903 -73.740855
-1.200653 19.657488 20.653735 178.356745 -3.593579 -153.546546 0.000000 0.000000 0.000000 -21.005715 -15.079974 -19.995417 0.120371 2.236843 6.160773 0.047420 -5.574433 -5.190935 1.081529 -6.609966 -18.564884 0.000000 0.000000 0.000000 19.135565 13.695123 -20.832386 -0.140169 -2.412849 6.648010 -0.977827 4.837964 -17.695669 -0.573433 4.848507 -13.477069 -6.615848 -1.753262 -28.319468 -0.626886 -0.764448 -1.557442 2.574888 -0.994001 13.307928 -3.586781 -2.609291 -2.841441 5.878174 -4.325253 11.054808 2.198315 -2.168728 3.995624 0.000000 0.000000 0.000000 3.897791 -3.007910 -20.822517 9.805264 -16.434376 1.419310 22.424320 1.488439 12.620341 0.000000 0.000000 0.000000 -7.125000 0.000000 0.000000 -3.351489 16.379387 -2.274356 0.000000 0.000000 0.000000 2.904211 6.373157 4.837122 -17.791807 -27.889791 -4.451397 -7.821682 2.771545 58.801856 0.000000 0.000000 0.000000 7.125000 0.000000 0.000000 89.806042 74.834686 -74.072803
-1.200191 19.655410 20.652119 178.344431 -3.617899 -153.473432 0.000000 0.000000 0.000000 -20.994094 -15.116993 -20.069146 0.121063 2.243154 6.178167 0.049575 -5.563966 -5.239344 1.123012 -6.731257 -18.921755 0.000000 0.000000 0.000000 19.102857 13.779704 -20.875408 -0.139861 -2.410386 6.641237 -0.968284 4.827805 -17.607086 -0.516866 4.606309 -12.789186 -6.643785 -1.772502 -28.407436 -0.627733 -0.780610 -1.574527 2.580661 -1.005776 13.329785 -3.500276 -2.712188 -2.885001 5.600343 -4.413066 10.728260 2.267118 -2.232760 4.230280 0.000000 0.000000 0.000000 3.908488 -3.008987 -20.715771 9.795105 -16.418445 1.416462 22.195975 1.661448 12.748251 0.000000 0.000000 0.000000 -7.125000 0.000000 0.000000 -3.515187 16.265484 -2.394570 0.000000 0.000000 0.000000 2.890589 6.382547 4.886377 -17.764408 -27.854388 -4.438622 -8.081427 2.955406 58.925995 0.000000 0.000000 0.000000 7.125000 0.000000 0.000000 90.288053 74.912032 -74.658404
-1.201027 19.654753 20.651924 178.349412 -3.597930 -153.427497 0.000000 0.000000 0.000000 -20.999459 -15.093415 -20.140528 0.122435 2.255580 6.212547 0.051174 -5.528915 -5.260142 1.192475 -6.927908 -19.502541 0.000000 0.000000 0.000000 19.105357 13.730739 -20.960680 -0.140418 -2.415274 6.654786 -0.952317 5.000979 -17.445924 -0.452949 4.312904 -11.959295 -6.640961 -1.775435 -28.451793 -0.615608 -0.789050 -1.594269 2.587977 -1.011127 13.328355 -3.436317 -2.808724 -2.930662 5.434191 -4.510577 10.587700 2.228814 -2.283821 4.255042 0.000000 0.000000 0.000000 3.882248 -3.019763 -20.576288 9.768763 -16.377065 1.409044 22.107291 1.772256 12.816801 0.000000 0.000000 0.000000 -7.125000 0.000000 0.000000 -3.579558 16.201120 -2.443502 0.000000 0.000000 0.000000 2.861401 6.413308 4.918214 -17.759124 -27.847585 -4.436162 -8.273411 3.105418 59.039386 0.000000 0.000000 0.000000 7.125000 0.000000 0.000000 90.729728 74.966030 -75.177047
-1.201639 19.654949 20.652232 178.359422 -3.569083 -153.407613 0.000000 0.000000 0.000000 -21.000094 -15.071279 -20.179379 0.123510 2.265482 6.239911 0.051823 -5.499243 -5.261290 1.236752 -7.052152 -19.869874 0.000000 0.000000 0.000000 19.116090 13.670579 -21.024545 -0.141110 -2.421311 6.671475 -0.942012 5.158008 -17.339532 -0.413561 4.127707 -11.436164 -6.632547 -1.773196 -28.470785 -0.599557 -0.791603 -1.603277 2.599391 -1.012651 13.327279 -3.375231 -2.905515 -2.990007 5.298256 -4.612177 10.487383 2.164514 -2.331846 4.228841 0.000000 0.000000 0.000000 3.836659 -3.022853 -20.512024 9.750330 -16.348094 1.403832 22.171435 1.742509 12.802274 0.000000 0.000000 0.000000 -7.125000 0.000000 0.000000 -3.534564 16.210174 -2.412042 0.000000 0.000000 0.000000 2.833884 6.424616 4.911644 -17.758270 -27.846499 -4.435774 -8.304882 3.159998 59.080844 0.000000 0.000000 0.000000 7.125000 0.000000 0.000000 90.887497 74.972803 -75.348457
